:SAMPLES-PER-SECOND 30
:FRAME-RANGE 1-3535
:FULLY-SPECIFIED
:DEGREES
3425
root  33.0299 38.1838 44.0994 176.499 19.2896 -169.235
RightUpLeg  -83.1959 -14.4284 -0.757283
RightLeg  103.588 2.02075 -6.00112
RightFoot  4.3387 -0.823814 6.19267
RightToes  1.22775e-009 1.2921e-014 -6.02303e-014
Spine  36.0925 -1.65727 2.02732
Spine1  3.80628 -1.69116 9.70815
HEad  -28.7698 9.71959 -4.81922
LeftShoulder1  2.38289 -5.81709 -19.0517
LeftArm  17.6288 -34.5261 -55.3982
LeftForeArm  5.70041 -6.21893 -17.098
LeftHand  0.174038 -1.89456 -2.61962
RightShoulder  12.1882 26.3382 34.6152
RightArm  -28.0532 19.4873 0.87079
RightForeArm  1.34732 -4.39005 11.6487
RightHand  1.16221 4.62745 13.0998
LeftUpLeg  -14.145 13.0219 9.57891
LeftLeg  36.1144 -1.54847 -0.830889
LeftFoot  -15.7029 0.0678991 -0.690168
LeftToes  2.52163e-011 5.65494e-011 -1.09494e-012
3426
root  32.8587 38.2386 44.2027 177.134 19.2873 -169.077
RightUpLeg  -85.5885 -13.092 -1.431
RightLeg  105.196 1.81936 -4.7435
RightFoot  0.645756 -0.617503 5.91761
RightToes  1.22775e-009 1.2921e-014 -6.02303e-014
Spine  36.7413 -2.25721 4.23091
Spine1  3.28999 -1.14865 8.44031
HEad  -30.9266 9.97764 -6.06201
LeftShoulder1  2.28389 -5.5274 -18.7534
LeftArm  7.33096 -31.7539 -53.055
LeftForeArm  11.3816 0.17061 -18.0562
LeftHand  0.297617 -2.33207 -4.29538
RightShoulder  12.6085 26.5784 35.6608
RightArm  -27.0997 19.1346 1.00207
RightForeArm  3.12019 -3.42414 11.9746
RightHand  1.23878 5.10576 13.3095
LeftUpLeg  -14.8263 13.6451 9.40487
LeftLeg  35.6494 -1.98945 -1.15302
LeftFoot  -15.1256 0.0758656 -0.449919
LeftToes  2.52163e-011 5.65494e-011 -1.09494e-012
3427
root  32.7954 38.2829 44.2407 177.23 19.6278 -169.73
RightUpLeg  -84.5011 -11.5028 -2.42498
RightLeg  105.973 1.75275 -4.31125
RightFoot  -2.48303 -0.667817 8.38784
RightToes  1.22775e-009 1.2921e-014 -6.02303e-014
Spine  36.8276 -2.45369 4.91277
Spine1  3.23095 -0.92223 7.55161
HEad  -32.4502 10.8159 -8.12892
LeftShoulder1  2.20315 -4.8103 -20.0518
LeftArm  0.838399 -25.2792 -46.1891
LeftForeArm  11.5165 -2.51893 -16.9112
LeftHand  0.278981 -2.03739 -4.20106
RightShoulder  12.1605 24.6963 36.8977
RightArm  -23.5589 18.9401 1.66553
RightForeArm  0.972305 4.4503 13.273
RightHand  1.35687 5.73448 13.7362
LeftUpLeg  -14.8365 14.0197 8.62258
LeftLeg  34.9776 -2.02597 -1.14491
LeftFoot  -14.7304 0.0707123 -0.59645
LeftToes  2.52163e-011 5.65494e-011 -1.09494e-012
3428
root  32.8529 38.3062 44.2188 176.837 19.7153 -171.183
RightUpLeg  -80.2179 -10.4526 -3.68705
RightLeg  105.664 1.57276 -3.83525
RightFoot  -2.3313 -0.864801 10.7438
RightToes  1.22775e-009 1.2921e-014 -6.02303e-014
Spine  36.2396 -2.2636 4.24618
Spine1  3.00488 -0.868447 6.91073
HEad  -32.5607 11.1992 -10.189
LeftShoulder1  2.07354 -3.96856 -21.3839
LeftArm  2.15959 -17.5126 -38.1884
LeftForeArm  4.07596 -9.7614 -14.3636
LeftHand  0.265887 -1.6288 -4.26846
RightShoulder  11.2657 22.3634 37.3772
RightArm  -0.983375 17.7427 3.18562
RightForeArm  -17.656 18.3802 8.90516
RightHand  1.35779 5.72777 13.7543
LeftUpLeg  -14.3949 14.3072 7.23413
LeftLeg  34.139 -2.17504 -1.20642
LeftFoot  -14.4392 0.0681239 -0.68368
LeftToes  2.52163e-011 5.65494e-011 -1.09494e-012
3429
root  33.0352 38.3206 44.1567 176.118 19.679 -173.207
RightUpLeg  -73.3016 -9.49071 -5.17031
RightLeg  103.406 1.1658 -2.99991
RightFoot  0.494537 -1.1957 11.5317
RightToes  1.22775e-009 1.2921e-014 -6.02303e-014
Spine  35.1027 -1.70447 2.81594
Spine1  2.62071 -0.602483 5.67132
HEad  -31.5929 10.6908 -11.8178
LeftShoulder1  1.83679 -3.16184 -21.173
LeftArm  7.98505 -8.88893 -31.1569
LeftForeArm  -8.51008 -18.8299 -8.37342
LeftHand  0.380293 -2.31712 -5.55167
RightShoulder  9.95895 19.5436 37.1091
RightArm  3.89013 15.1622 3.43711
RightForeArm  -18.7113 29.5749 7.37161
RightHand  1.23947 5.15915 13.2465
LeftUpLeg  -13.5886 15.0127 5.54969
LeftLeg  33.1528 -2.71516 -1.52548
LeftFoot  -14.2162 0.0665535 -0.746033
LeftToes  2.52163e-011 5.65494e-011 -1.09494e-012
3430
root  33.3685 38.3307 44.1212 176.023 17.9976 -176.162
RightUpLeg  -65.117 -9.86106 -7.51798
RightLeg  98.504 0.836473 -2.79452
RightFoot  2.70554 -1.78181 14.5423
RightToes  1.22775e-009 1.2921e-014 -6.02303e-014
Spine  31.5028 -0.497919 -1.00745
Spine1  3.3391 -1.18245 6.71037
HEad  -29.6281 9.97732 -13.1527
LeftShoulder1  1.5562 -2.25073 -20.6192
LeftArm  1.55128 -0.632303 -23.4729
LeftForeArm  -5.91105 -27.4325 -6.21717
LeftHand  0.459892 -2.93015 -6.20212
RightShoulder  8.21997 16.1307 35.8562
RightArm  3.60269 11.7934 3.51108
RightForeArm  -12.6883 40.9146 10.4636
RightHand  1.04742 3.94968 12.6885
LeftUpLeg  -13.8577 14.7393 2.62098
LeftLeg  31.7175 -3.56013 -1.98676
LeftFoot  -13.4378 0.0658837 -0.804949
LeftToes  2.52163e-011 5.65494e-011 -1.09494e-012
3431
root  33.7167 38.4198 44.0458 175.714 16.0909 -178.397
RightUpLeg  -54.4583 -10.2598 -9.1345
RightLeg  89.6354 0.330414 -1.42276
RightFoot  4.28035 -2.28043 16.7307
RightToes  1.22775e-009 1.2921e-014 -6.02303e-014
Spine  28.4586 0.287847 -3.65574
Spine1  3.44806 -1.47147 6.70825
HEad  -26.2058 9.00948 -13.1349
LeftShoulder1  1.24935 -1.30349 -19.4824
LeftArm  -8.11524 5.84482 -16.1241
LeftForeArm  3.22877 -36.9724 -8.24906
LeftHand  0.51431 -3.43005 -6.52687
RightShoulder  6.26748 12.2081 33.9571
RightArm  5.71073 7.37285 3.87302
RightForeArm  -6.40467 52.478 15.2145
RightHand  0.92402 2.67117 13.0471
LeftUpLeg  -13.1549 14.4205 0.612892
LeftLeg  29.732 -4.79434 -2.57564
LeftFoot  -12.4181 0.067349 -0.762082
LeftToes  2.52163e-011 5.65494e-011 -1.09494e-012
3432
root  34.1097 38.5842 43.894 175.494 13.5951 -179.803
RightUpLeg  -42.2417 -11.0033 -9.81073
RightLeg  76.8292 0.579548 1.59217
RightFoot  5.34436 -2.67754 18.3665
RightToes  1.22775e-009 1.2921e-014 -6.02303e-014
Spine  25.5897 0.627165 -4.93778
Spine1  2.84841 -1.55235 6.01595
HEad  -21.1275 7.87561 -11.8901
LeftShoulder1  0.937484 -0.459853 -16.9528
LeftArm  -14.2319 9.95664 -11.0016
LeftForeArm  9.18531 -47.1803 -11.4476
LeftHand  0.488985 -3.02531 -6.52502
RightShoulder  4.4973 8.43937 31.7534
RightArm  9.14448 1.73122 4.20832
RightForeArm  1.42606 62.7909 22.6415
RightHand  0.826534 1.51701 13.7179
LeftUpLeg  -11.9177 13.9882 -0.45861
LeftLeg  27.4227 -6.56059 -3.31296
LeftFoot  -11.2744 0.0681685 -0.865448
LeftToes  2.52163e-011 5.65494e-011 -1.09494e-012
